<svg xmlns="http://www.w3.org/2000/svg" xmlns:xlink="http://www.w3.org/1999/xlink" width="1500" zoomAndPan="magnify" viewBox="0 0 1125 374.999991" height="500" preserveAspectRatio="xMidYMid meet" version="1.0"><defs><g><g id="id1"/></g><clipPath id="id2"><path d="M 81 62.175781 L 489.625 62.175781 L 489.625 312.675781 L 81 312.675781 Z M 81 62.175781 " clip-rule="nonzero"/></clipPath><clipPath id="id3"><path d="M 12 62.175781 L 421 62.175781 L 421 312.675781 L 12 312.675781 Z M 12 62.175781 " clip-rule="nonzero"/></clipPath></defs><g clip-path="url(#id2)"><path fill="rgb(15.689087%, 38.42926%, 56.858826%)" d="M 109.390625 254.980469 C 101.667969 254.980469 95.40625 248.722656 95.40625 241.011719 C 95.40625 233.296875 101.667969 227.042969 109.390625 227.042969 C 117.113281 227.042969 123.375 233.296875 123.375 241.011719 C 123.375 248.722656 117.113281 254.980469 109.390625 254.980469 Z M 363.742188 62.175781 C 337.761719 62.175781 312.914062 71.25 287.777344 89.90625 C 266.335938 105.820312 247.34375 126.347656 227.234375 148.078125 C 198.910156 178.6875 169.871094 210.0625 133.910156 226.917969 C 129.023438 218.453125 119.878906 212.75 109.390625 212.75 C 93.761719 212.75 81.09375 225.40625 81.09375 241.011719 C 81.09375 256.621094 93.761719 269.273438 109.390625 269.273438 C 119.632812 269.273438 128.601562 263.839844 133.566406 255.703125 C 149.914062 249.496094 165.914062 240.402344 181.871094 228.28125 C 205.761719 210.121094 226.535156 187.679688 246.621094 165.96875 C 283.464844 126.148438 318.265625 88.539062 363.742188 88.539062 C 418.335938 88.539062 462.753906 132.898438 462.753906 187.425781 C 462.753906 241.953125 418.335938 286.3125 363.742188 286.3125 C 327.855469 286.3125 295.511719 267.449219 277.863281 236.667969 C 271.574219 243.453125 265.375 250.105469 259.148438 256.523438 C 268.863281 271.183594 281.589844 283.703125 296.570312 293.207031 C 316.632812 305.945312 339.863281 312.675781 363.742188 312.675781 C 432.886719 312.675781 489.148438 256.492188 489.148438 187.425781 C 489.148438 118.363281 432.886719 62.175781 363.742188 62.175781 " fill-opacity="1" fill-rule="nonzero"/></g><g clip-path="url(#id3)"><path fill="rgb(94.509888%, 31.759644%, 10.5896%)" d="M 392.109375 147.808594 C 384.386719 147.808594 378.128906 141.554688 378.128906 133.839844 C 378.128906 126.128906 384.386719 119.871094 392.109375 119.871094 C 399.832031 119.871094 406.09375 126.128906 406.09375 133.839844 C 406.09375 141.554688 399.832031 147.808594 392.109375 147.808594 Z M 392.109375 105.578125 C 381.871094 105.578125 372.902344 111.011719 367.929688 119.148438 C 351.589844 125.355469 335.585938 134.449219 319.628906 146.570312 C 295.738281 164.730469 274.96875 187.171875 254.882812 208.882812 C 218.035156 248.703125 183.230469 286.3125 137.761719 286.3125 C 83.164062 286.3125 38.75 241.953125 38.75 187.425781 C 38.75 132.898438 83.164062 88.539062 137.761719 88.539062 C 173.644531 88.539062 205.988281 107.402344 223.640625 138.183594 C 229.925781 131.398438 236.125 124.746094 242.355469 118.328125 C 232.636719 103.667969 219.914062 91.148438 204.929688 81.644531 C 184.863281 68.910156 161.636719 62.175781 137.761719 62.175781 C 68.609375 62.175781 12.355469 118.359375 12.355469 187.425781 C 12.355469 256.488281 68.609375 312.675781 137.761719 312.675781 C 163.738281 312.675781 188.585938 303.601562 213.726562 284.945312 C 235.164062 269.03125 254.15625 248.507812 274.265625 226.773438 C 302.589844 196.164062 331.632812 164.789062 367.585938 147.933594 C 372.480469 156.398438 381.621094 162.101562 392.109375 162.101562 C 407.742188 162.101562 420.40625 149.453125 420.40625 133.839844 C 420.40625 118.230469 407.742188 105.578125 392.109375 105.578125 " fill-opacity="1" fill-rule="nonzero"/></g><g fill="rgb(94.509888%, 31.759644%, 10.5896%)" fill-opacity="1"><g transform="translate(447.233638, 246.519338)"><g><path d="M 79.015625 -19.046875 L 33.828125 -19.046875 L 26.28125 0 L -0.734375 0 L 43.859375 -103.375 L 70.890625 -103.375 L 114.453125 0 L 86.390625 0 Z M 71.328125 -38.984375 L 56.5625 -77.234375 L 41.5 -38.984375 Z M 71.328125 -38.984375 "/></g></g></g><g fill="rgb(94.509888%, 31.759644%, 10.5896%)" fill-opacity="1"><g transform="translate(568.465086, 246.519338)"><g><path d="M 58.78125 -104.265625 C 66.457031 -104.265625 74.007812 -102.6875 81.4375 -99.53125 C 88.875 -96.382812 95.203125 -92.15625 100.421875 -86.84375 L 85.21875 -68.828125 C 81.863281 -72.960938 77.847656 -76.234375 73.171875 -78.640625 C 68.492188 -81.054688 63.84375 -82.265625 59.21875 -82.265625 C 51.050781 -82.265625 44.207031 -79.382812 38.6875 -73.625 C 33.175781 -67.863281 30.421875 -60.75 30.421875 -52.28125 C 30.421875 -43.613281 33.175781 -36.375 38.6875 -30.5625 C 44.207031 -24.757812 51.050781 -21.859375 59.21875 -21.859375 C 63.550781 -21.859375 68.054688 -22.941406 72.734375 -25.109375 C 77.410156 -27.273438 81.570312 -30.226562 85.21875 -33.96875 L 100.578125 -17.71875 C 94.960938 -12.007812 88.335938 -7.429688 80.703125 -3.984375 C 73.078125 -0.535156 65.472656 1.1875 57.890625 1.1875 C 42.335938 1.1875 29.390625 -3.878906 19.046875 -14.015625 C 8.710938 -24.160156 3.546875 -36.816406 3.546875 -51.984375 C 3.546875 -66.847656 8.8125 -79.273438 19.34375 -89.265625 C 29.882812 -99.265625 43.03125 -104.265625 58.78125 -104.265625 Z M 58.78125 -104.265625 "/></g></g></g><g fill="rgb(94.509888%, 31.759644%, 10.5896%)" fill-opacity="1"><g transform="translate(678.179028, 246.519338)"><g><path d="M 79.015625 -19.046875 L 33.828125 -19.046875 L 26.28125 0 L -0.734375 0 L 43.859375 -103.375 L 70.890625 -103.375 L 114.453125 0 L 86.390625 0 Z M 71.328125 -38.984375 L 56.5625 -77.234375 L 41.5 -38.984375 Z M 71.328125 -38.984375 "/></g></g></g><g fill="rgb(94.509888%, 31.759644%, 10.5896%)" fill-opacity="1"><g transform="translate(799.410462, 246.519338)"><g><path d="M 58.78125 -104.265625 C 66.457031 -104.265625 74.007812 -102.6875 81.4375 -99.53125 C 88.875 -96.382812 95.203125 -92.15625 100.421875 -86.84375 L 85.21875 -68.828125 C 81.863281 -72.960938 77.847656 -76.234375 73.171875 -78.640625 C 68.492188 -81.054688 63.84375 -82.265625 59.21875 -82.265625 C 51.050781 -82.265625 44.207031 -79.382812 38.6875 -73.625 C 33.175781 -67.863281 30.421875 -60.75 30.421875 -52.28125 C 30.421875 -43.613281 33.175781 -36.375 38.6875 -30.5625 C 44.207031 -24.757812 51.050781 -21.859375 59.21875 -21.859375 C 63.550781 -21.859375 68.054688 -22.941406 72.734375 -25.109375 C 77.410156 -27.273438 81.570312 -30.226562 85.21875 -33.96875 L 100.578125 -17.71875 C 94.960938 -12.007812 88.335938 -7.429688 80.703125 -3.984375 C 73.078125 -0.535156 65.472656 1.1875 57.890625 1.1875 C 42.335938 1.1875 29.390625 -3.878906 19.046875 -14.015625 C 8.710938 -24.160156 3.546875 -36.816406 3.546875 -51.984375 C 3.546875 -66.847656 8.8125 -79.273438 19.34375 -89.265625 C 29.882812 -99.265625 43.03125 -104.265625 58.78125 -104.265625 Z M 58.78125 -104.265625 "/></g></g></g><g fill="rgb(94.509888%, 31.759644%, 10.5896%)" fill-opacity="1"><g transform="translate(909.124419, 246.519338)"><g><path d="M 36.625 0 L 10.34375 0 L 10.34375 -103.375 L 36.625 -103.375 Z M 36.625 0 "/></g></g></g><g fill="rgb(94.509888%, 31.759644%, 10.5896%)" fill-opacity="1"><g transform="translate(963.613503, 246.519338)"><g><path d="M 79.015625 -19.046875 L 33.828125 -19.046875 L 26.28125 0 L -0.734375 0 L 43.859375 -103.375 L 70.890625 -103.375 L 114.453125 0 L 86.390625 0 Z M 71.328125 -38.984375 L 56.5625 -77.234375 L 41.5 -38.984375 Z M 71.328125 -38.984375 "/></g></g></g><g fill="rgb(94.509888%, 31.759644%, 10.5896%)" fill-opacity="1"><g transform="translate(1084.844962, 246.519338)"><g><path d="M 9 -20.078125 C 11.269531 -22.347656 14.222656 -23.484375 17.859375 -23.484375 C 21.503906 -23.484375 24.484375 -22.347656 26.796875 -20.078125 C 29.117188 -17.816406 30.28125 -14.863281 30.28125 -11.21875 C 30.28125 -7.582031 29.117188 -4.601562 26.796875 -2.28125 C 24.484375 0.03125 21.503906 1.1875 17.859375 1.1875 C 14.222656 1.1875 11.269531 0.03125 9 -2.28125 C 6.738281 -4.601562 5.609375 -7.582031 5.609375 -11.21875 C 5.609375 -14.863281 6.738281 -17.816406 9 -20.078125 Z M 9 -20.078125 "/></g></g></g></svg>